<svg xmlns="http://www.w3.org/2000/svg" viewBox="0 0 1200 1200" preserveAspectRatio="xMidYMid slice" role="img" aria-label="Imaging technology placeholder image">
  <defs>
    <linearGradient id="g9" x1="0" y1="0" x2="1" y2="1">
      <stop offset="0" stop-color="#000B33"/><stop offset="0.55" stop-color="#001C77"/><stop offset="1" stop-color="#0B3AB0"/>
    </linearGradient>
    <radialGradient id="r9" cx="0.6" cy="0.6" r="0.75">
      <stop offset="0" stop-color="#00C6C1" stop-opacity="0.55"/><stop offset="1" stop-color="#00C6C1" stop-opacity="0"/>
    </radialGradient>
    <filter id="n9"><feTurbulence type="fractalNoise" baseFrequency="0.9" numOctaves="3"/>
      <feColorMatrix type="saturate" values="0"/></filter>
  </defs>
  <rect width="1200" height="1200" fill="url(#g9)"/>
  <rect width="1200" height="1200" fill="url(#r9)"/>
  <circle cx="600.0" cy="600.0" r="27.3" fill="none" stroke="#00C6C1" stroke-width="1.0" opacity="0.45"/><circle cx="600.0" cy="600.0" r="54.5" fill="none" stroke="#00C6C1" stroke-width="1.6" opacity="0.434"/><circle cx="600.0" cy="600.0" r="81.8" fill="none" stroke="#00C6C1" stroke-width="2.2" opacity="0.417"/><circle cx="600.0" cy="600.0" r="109.1" fill="none" stroke="#00C6C1" stroke-width="1.0" opacity="0.401"/><circle cx="600.0" cy="600.0" r="136.4" fill="none" stroke="#00C6C1" stroke-width="1.6" opacity="0.385"/><circle cx="600.0" cy="600.0" r="163.6" fill="none" stroke="#00C6C1" stroke-width="2.2" opacity="0.368"/><circle cx="600.0" cy="600.0" r="190.9" fill="none" stroke="#00C6C1" stroke-width="1.0" opacity="0.352"/><circle cx="600.0" cy="600.0" r="218.2" fill="none" stroke="#00C6C1" stroke-width="1.6" opacity="0.335"/><circle cx="600.0" cy="600.0" r="245.5" fill="none" stroke="#00C6C1" stroke-width="2.2" opacity="0.319"/><circle cx="600.0" cy="600.0" r="272.7" fill="none" stroke="#00C6C1" stroke-width="1.0" opacity="0.303"/><circle cx="600.0" cy="600.0" r="300.0" fill="none" stroke="#00C6C1" stroke-width="1.6" opacity="0.286"/><circle cx="600.0" cy="600.0" r="327.3" fill="none" stroke="#00C6C1" stroke-width="2.2" opacity="0.27"/><circle cx="600.0" cy="600.0" r="354.5" fill="none" stroke="#00C6C1" stroke-width="1.0" opacity="0.254"/><circle cx="600.0" cy="600.0" r="381.8" fill="none" stroke="#00C6C1" stroke-width="1.6" opacity="0.237"/><circle cx="600.0" cy="600.0" r="409.1" fill="none" stroke="#00C6C1" stroke-width="2.2" opacity="0.221"/><circle cx="600.0" cy="600.0" r="436.4" fill="none" stroke="#00C6C1" stroke-width="1.0" opacity="0.205"/><circle cx="600.0" cy="600.0" r="463.6" fill="none" stroke="#00C6C1" stroke-width="1.6" opacity="0.188"/><circle cx="600.0" cy="600.0" r="490.9" fill="none" stroke="#00C6C1" stroke-width="2.2" opacity="0.172"/><circle cx="600.0" cy="600.0" r="518.2" fill="none" stroke="#00C6C1" stroke-width="1.0" opacity="0.155"/><circle cx="600.0" cy="600.0" r="545.5" fill="none" stroke="#00C6C1" stroke-width="1.6" opacity="0.139"/><circle cx="600.0" cy="600.0" r="572.7" fill="none" stroke="#00C6C1" stroke-width="2.2" opacity="0.123"/><circle cx="600.0" cy="600.0" r="600.0" fill="none" stroke="#00C6C1" stroke-width="1.0" opacity="0.106"/><pattern id="dp5" width="28" height="28" patternUnits="userSpaceOnUse"><circle cx="14.0" cy="14.0" r="1.5" fill="#fff"/></pattern><rect width="1200" height="1200" fill="url(#dp5)" opacity="0.16"/>
  <rect width="1200" height="1200" filter="url(#n9)" opacity="0.06"/>
</svg>